<?xml version="1.0" encoding="utf-8"?>
<!-- Svg Vector Icons : http://www.onlinewebfonts.com/icon -->
<!DOCTYPE svg PUBLIC "-//W3C//DTD SVG 1.1//EN" "http://www.w3.org/Graphics/SVG/1.1/DTD/svg11.dtd">
<svg version="1.1" xmlns="http://www.w3.org/2000/svg" xmlns:xlink="http://www.w3.org/1999/xlink" x="0px" y="0px" viewBox="0 0 1000 1000" enable-background="new 0 0 1000 1000" xml:space="preserve">
<metadata> Svg Vector Icons : http://www.onlinewebfonts.com/icon </metadata>
<g><path style="fill: #cccccc" d="M69.8,556.4l363.5,187.2l64.9-187.2L134.7,379.1L69.8,556.4z M506.4,556.4L568,742l376.5-187.2l-73-175.6L506.4,556.4z M10,229.5l125,149.1l363.5-188.9L380,35.6L10,229.5z M990,232.8L628.1,35.6L504.7,189.7l366.8,188.9L990,232.8z M113.2,603.2L112,783l383.4,181.4v-338l-54.8,145.8L113.2,603.2z M508.8,626.4v338L891,783V604.5L559.6,772.5L508.8,626.4z"/></g>
</svg>